<?xml version="1.0" standalone="no"?>
<!DOCTYPE svg PUBLIC "-//W3C//DTD SVG 20010904//EN"
 "http://www.w3.org/TR/2001/REC-SVG-20010904/DTD/svg10.dtd">
<svg version="1.0" xmlns="http://www.w3.org/2000/svg"
 width="793.000000pt" height="793.000000pt" viewBox="0 0 793.000000 793.000000"
 preserveAspectRatio="xMidYMid meet">
<metadata>
Created by potrace 1.14, written by Peter Selinger 2001-2017
</metadata>
<g transform="translate(0.000000,793.000000) scale(0.100000,-0.100000)"
fill="#000000" stroke="none">
<path d="M3691 7880 c-510 -43 -962 -164 -1414 -378 -942 -447 -1683 -1281
-2020 -2272 -84 -245 -130 -438 -173 -720 -35 -235 -45 -698 -20 -941 125
-1195 750 -2232 1746 -2896 542 -361 1157 -575 1829 -638 193 -18 549 -20 670
-4 299 39 439 63 583 98 747 183 1384 546 1908 1087 617 638 986 1425 1092
2329 20 171 17 686 -6 860 -83 651 -288 1208 -639 1735 -267 401 -584 727
-992 1020 -183 131 -239 165 -437 269 -435 228 -860 363 -1339 426 -210 28
-606 40 -788 25z m727 -204 c457 -61 848 -178 1232 -371 754 -377 1354 -989
1716 -1750 309 -652 423 -1399 323 -2114 -98 -701 -380 -1340 -834 -1888 -174
-210 -494 -509 -683 -637 -26 -17 -67 -47 -92 -65 -64 -47 -308 -190 -417
-244 -304 -153 -672 -277 -998 -336 -402 -74 -852 -81 -1255 -20 -493 75 -993
260 -1420 527 -789 494 -1375 1278 -1620 2168 -177 645 -185 1286 -24 1927
239 948 868 1794 1704 2291 514 305 1035 470 1670 530 98 9 589 -4 698 -18z"/>
<path d="M3680 7580 c-648 -65 -1197 -259 -1730 -613 -139 -92 -200 -139 -355
-273 -686 -591 -1139 -1461 -1230 -2364 -17 -175 -20 -550 -5 -715 90 -975
578 -1890 1335 -2501 798 -644 1819 -923 2832 -774 848 124 1647 560 2206
1203 504 580 798 1255 888 2042 19 164 16 588 -5 765 -69 585 -271 1139 -588
1614 -148 221 -275 375 -467 566 -577 574 -1302 928 -2121 1036 -143 19 -624
28 -760 14z m560 -270 c239 -24 301 -33 435 -62 256 -55 530 -150 807 -281
196 -92 432 -244 648 -416 105 -83 366 -337 446 -434 450 -543 722 -1175 799
-1854 26 -229 21 -753 -7 -753 -5 0 -6 4 -3 10 8 13 9 431 1 490 -3 25 -8 72
-11 105 -23 234 -82 504 -165 756 -63 189 -70 206 -165 404 -179 372 -409 692
-701 975 -125 121 -369 340 -379 340 -13 0 2 -20 88 -110 346 -367 523 -588
677 -845 177 -297 301 -594 385 -921 44 -171 71 -321 95 -544 9 -80 5 -615 -5
-690 -62 -458 -171 -818 -361 -1190 -282 -556 -717 -1031 -1220 -1333 -171
-103 -289 -160 -459 -222 -559 -203 -1228 -246 -1835 -119 -273 57 -551 153
-795 274 -808 400 -1406 1058 -1715 1888 -101 272 -154 484 -194 772 -25 176
-28 608 -7 803 8 70 15 126 17 124 2 -1 0 -83 -4 -180 -4 -97 -5 -177 -2 -177
3 0 5 -89 6 -198 0 -196 24 -423 45 -430 5 -2 9 -13 9 -25 0 -30 63 -277 102
-402 153 -492 435 -963 808 -1349 93 -96 312 -296 324 -296 24 0 -14 47 -147
181 -577 578 -932 1328 -1004 2119 -14 145 -7 475 11 570 8 47 27 146 40 220
134 743 452 1359 965 1870 288 287 573 493 916 659 239 117 489 209 610 226
22 3 51 8 65 10 73 14 312 38 430 44 165 8 311 5 450 -9z m3127 -3862 c-2 -13
-4 -5 -4 17 -1 22 1 32 4 23 2 -10 2 -28 0 -40z"/>
<path d="M3755 6843 c-34 -13 -104 -15 -476 -13 -485 2 -460 5 -474 -67 -4
-21 -21 -70 -39 -109 -36 -78 -35 -98 10 -133 43 -34 68 -27 132 37 61 60 148
104 158 79 2 -7 3 -118 2 -247 l-3 -235 -38 -6 c-21 -3 -45 -13 -54 -22 -19
-18 -21 -84 -4 -115 12 -22 16 -22 235 -22 254 0 248 -2 249 80 1 59 -7 70
-61 77 -52 7 -52 8 -52 289 0 249 -5 234 74 210 58 -18 109 -56 143 -108 23
-35 31 -39 57 -35 17 2 39 7 49 12 16 7 17 -5 17 -179 0 -172 -1 -186 -18
-186 -67 0 -95 -114 -38 -152 6 -4 148 -8 316 -8 168 0 310 4 316 8 51 33 41
128 -16 149 l-28 11 -4 149 c-3 143 -4 151 -30 190 -34 52 -77 67 -169 61
l-69 -5 0 111 c0 127 -9 153 -60 178 -42 22 -72 22 -125 1z m110 -45 l25 -11
0 -154 c0 -84 2 -153 5 -153 4 0 19 7 35 15 48 25 130 29 170 8 54 -28 63 -58
69 -233 l6 -155 33 -10 c26 -7 32 -14 32 -37 l0 -28 -145 0 -145 0 0 28 c0 19
7 30 23 37 21 10 22 16 25 145 1 75 -2 142 -8 150 -8 13 -15 12 -55 -9 l-45
-24 0 -122 c0 -118 1 -122 26 -144 14 -12 24 -30 22 -39 -3 -15 -21 -17 -151
-20 l-147 -3 0 29 c0 25 5 30 38 38 l37 9 3 293 2 292 -24 0 c-41 0 -56 11
-56 40 0 26 5 29 48 39 26 5 58 14 72 20 34 13 74 13 105 -1z m-266 -65 c7
-26 24 -71 39 -101 l26 -54 -22 -18 c-22 -18 -23 -18 -84 44 -66 66 -111 88
-210 102 l-48 6 0 -295 c0 -330 -7 -298 73 -313 35 -6 38 -9 35 -36 l-3 -30
-200 -1 -200 0 0 29 c0 27 4 30 50 39 l50 11 8 150 c5 82 5 214 2 293 l-7 143
-42 -6 c-69 -11 -148 -54 -197 -107 -46 -48 -47 -49 -69 -31 l-21 17 30 65
c17 36 34 82 37 103 l7 37 367 0 368 0 11 -47z m348 -540 c-2 -32 -3 -8 -3 52
0 61 1 87 3 58 2 -29 2 -78 0 -110z"/>
<path d="M3740 6764 c-19 -7 -43 -13 -52 -13 -31 -1 -19 -17 20 -27 l37 -9 3
-299 c2 -209 -1 -303 -9 -312 -6 -7 -26 -16 -45 -20 -71 -13 -30 -24 91 -24
121 0 162 11 91 24 -53 10 -57 21 -54 157 l3 123 47 33 c57 42 107 52 132 28
14 -15 16 -37 14 -173 -3 -152 -4 -157 -25 -167 -45 -19 -21 -25 102 -25 127
0 165 12 75 24 -27 4 -53 12 -57 19 -4 7 -13 87 -18 179 -12 192 -19 208 -87
208 -45 0 -86 -19 -145 -67 l-43 -34 0 195 0 196 -22 -1 c-13 -1 -39 -7 -58
-15z"/>
<path d="M2877 6754 c-4 -4 -7 -14 -7 -23 0 -9 -14 -45 -30 -80 -40 -85 -33
-99 14 -28 21 31 51 68 68 82 27 23 38 25 124 25 l94 0 0 -303 c0 -343 2 -333
-79 -344 -23 -3 -41 -10 -41 -14 0 -5 81 -9 180 -9 178 0 235 11 122 24 -108
12 -102 -9 -102 343 l0 306 98 -6 c132 -7 183 -27 255 -98 65 -65 74 -58 21
18 -27 39 -51 60 -93 80 l-56 28 -280 3 c-154 2 -283 0 -288 -4z"/>
<path d="M3975 6824 c8 -16 15 -35 15 -41 0 -10 26 -13 98 -13 88 0 156 -6
307 -25 146 -19 330 -63 514 -124 69 -22 126 -39 128 -37 3 2 -47 29 -109 59
-206 101 -540 179 -876 203 l-92 6 15 -28z"/>
<path d="M2585 6539 c-87 -45 -237 -132 -272 -159 -12 -10 -19 -21 -15 -25 4
-5 1 -5 -5 -1 -26 15 -283 -194 -443 -360 -448 -464 -718 -1043 -785 -1681
-16 -151 -19 -482 -5 -598 7 -61 52 -327 56 -333 3 -5 82 36 87 45 3 5 -2 53
-9 108 -20 136 -30 428 -22 599 28 587 275 1190 676 1656 220 255 551 518 822
655 30 15 57 29 59 31 2 1 -6 15 -17 31 -10 15 -23 38 -26 51 -4 12 -10 22
-14 22 -4 0 -43 -18 -87 -41z"/>
<path d="M4433 6539 c-181 -70 -233 -344 -92 -486 121 -123 337 -85 414 72 29
58 26 79 -17 109 l-22 16 22 0 c25 0 39 28 49 97 12 86 -50 179 -134 202 -60
17 -162 12 -220 -10z m212 -37 c64 -22 95 -65 95 -133 0 -81 4 -79 -142 -79
l-131 0 7 -42 c8 -51 32 -88 70 -106 37 -19 72 -8 110 34 l32 35 24 -19 24
-20 -26 -40 c-53 -80 -138 -119 -223 -103 -117 22 -178 102 -177 234 1 185
162 299 337 239z m-17 -284 c-31 -40 -60 -46 -87 -19 -39 39 -28 51 45 51 l67
0 -25 -32z"/>
<path d="M4455 6471 c-51 -23 -101 -79 -114 -128 -31 -111 7 -227 88 -270 82
-43 191 -21 245 49 42 56 34 80 -10 28 -44 -52 -134 -59 -200 -15 -34 22 -66
96 -62 143 l3 37 133 3 132 3 0 35 c0 113 -101 167 -215 115z m128 -34 c12
-13 17 -33 15 -56 l-3 -36 -92 -3 c-100 -3 -103 -1 -79 46 40 77 115 100 159
49z"/>
<path d="M4516 6417 c-37 -37 -33 -47 19 -47 50 0 57 13 26 51 l-18 23 -27
-27z"/>
<path d="M3507 6425 c-116 -24 -107 -13 -107 -125 l0 -98 28 -7 c15 -3 35 -14
44 -22 48 -43 47 -156 -2 -205 l-28 -28 -240 0 -240 0 -26 30 c-59 71 -40 190
37 221 18 7 35 18 39 23 9 13 11 66 2 66 -17 0 -264 -125 -357 -180 -533 -317
-949 -853 -1127 -1451 -26 -88 -35 -107 -68 -135 -79 -68 -91 -81 -138 -144
-161 -215 -183 -474 -62 -726 48 -101 131 -195 233 -263 64 -43 72 -51 54 -56
-12 -4 -26 -2 -32 4 -16 16 -30 13 -23 -5 5 -12 -11 -32 -53 -70 -67 -61 -93
-114 -93 -189 1 -91 47 -158 142 -205 156 -79 442 18 585 197 21 26 39 49 40
50 1 2 46 -12 101 -29 87 -28 113 -32 214 -33 108 0 119 2 175 30 93 46 177
146 215 256 l13 36 29 -57 c70 -140 224 -157 311 -33 17 24 33 43 36 43 3 0
17 -12 30 -25 18 -20 33 -25 70 -25 61 0 116 33 164 97 l38 51 28 -29 c38 -38
91 -47 143 -23 43 19 86 67 138 153 l33 53 21 -43 c54 -113 174 -100 274 30
27 36 33 40 39 24 19 -55 59 -66 128 -34 56 25 64 38 85 138 20 99 79 274 115
343 l24 45 1 -160 c0 -142 -9 -230 -35 -341 -8 -35 -65 -82 -124 -105 -52 -19
-57 -19 -97 -4 l-41 16 -33 -31 c-47 -44 -84 -61 -144 -67 -54 -6 -99 9 -126
41 -11 14 -20 8 -71 -48 -43 -47 -72 -68 -106 -80 -59 -20 -106 -20 -144 0
-30 15 -30 15 -80 -30 -60 -54 -126 -78 -186 -67 -22 4 -45 11 -51 15 -8 4
-31 -9 -58 -33 -26 -23 -63 -45 -83 -51 -82 -23 -169 -2 -220 54 -14 14 -28
26 -32 26 -4 0 -19 -20 -33 -44 -38 -64 -127 -141 -192 -166 -112 -42 -251
-42 -382 -1 l-61 19 26 -52 c36 -71 131 -209 198 -286 31 -36 66 -78 78 -95
l22 -30 -41 32 c-106 83 -207 201 -289 337 l-48 78 -46 -45 c-25 -24 -63 -56
-83 -72 l-38 -27 27 -47 c92 -159 222 -329 363 -475 167 -173 383 -338 457
-351 49 -8 87 -34 105 -73 10 -20 23 -28 51 -33 20 -3 47 -15 60 -27 22 -20
22 -20 46 -1 35 29 125 51 206 51 83 0 136 -14 182 -48 17 -13 37 -24 43 -24
6 0 42 31 79 70 37 38 80 74 95 80 81 30 203 -7 220 -67 8 -29 13 -33 45 -33
l36 0 -3 55 c-5 69 25 127 84 161 81 48 215 23 266 -49 29 -40 36 -129 15
-180 -9 -21 -12 -39 -6 -42 5 -4 9 -17 9 -31 0 -32 9 -30 44 7 40 42 94 75
146 89 62 17 171 15 228 -4 l49 -17 118 66 c340 191 625 428 799 665 26 36 49
66 51 68 1 2 17 -15 35 -38 l32 -41 -28 -42 c-43 -62 -247 -262 -344 -338
-159 -124 -317 -223 -500 -315 -62 -31 -108 -60 -104 -65 4 -6 15 -3 28 9 11
11 46 25 76 31 30 5 75 17 99 26 44 15 96 13 133 -6 10 -5 28 -5 45 2 15 6 65
11 111 10 l83 0 102 88 c56 48 143 130 192 182 89 93 223 252 232 277 4 9 18
2 47 -21 63 -50 216 -150 266 -174 76 -35 252 -104 257 -100 2 3 -24 19 -59
37 -71 37 -228 151 -302 220 -124 115 -268 317 -366 513 -124 250 -200 524
-230 832 -6 66 -15 124 -20 129 -5 4 -35 -19 -67 -52 -48 -49 -70 -64 -116
-77 -54 -16 -101 -14 -135 4 -8 4 -28 -7 -51 -29 -64 -61 -167 -77 -250 -40
l-44 20 -15 -22 c-86 -128 -233 -153 -324 -56 -45 46 -50 67 -9 37 26 -19 53
-24 107 -20 30 2 107 73 140 128 27 46 27 46 44 26 28 -35 83 -63 123 -63 68
0 114 29 173 109 10 13 15 12 39 -7 42 -33 109 -30 168 8 39 25 63 53 124 149
1 2 19 -15 41 -38 37 -39 42 -41 98 -41 77 0 137 36 184 109 35 54 44 60 54
36 3 -8 21 -23 41 -32 69 -33 162 12 233 110 l36 51 8 -38 c7 -35 3 -45 -45
-124 -30 -48 -64 -115 -75 -150 -34 -98 -26 -210 20 -274 50 -70 152 0 230
159 33 68 43 102 55 194 14 101 19 118 55 173 51 78 169 319 203 416 33 92 36
142 11 169 -25 28 -62 27 -80 -1 -8 -13 -38 -79 -66 -148 -58 -140 -97 -220
-107 -220 -3 0 -2 80 2 178 5 97 8 190 7 206 -3 61 -51 75 -124 35 -48 -27
-73 -68 -84 -139 -12 -81 -64 -243 -105 -327 -41 -85 -61 -105 -54 -54 2 16 5
115 7 219 3 208 0 222 -53 222 -43 0 -113 -36 -132 -69 -13 -22 -17 -52 -17
-119 0 -76 -5 -104 -29 -170 -35 -94 -98 -222 -109 -222 -9 0 -3 58 29 292 24
177 22 198 -22 198 -11 0 -19 4 -19 9 0 26 79 230 125 324 149 301 359 523
607 643 101 48 99 49 -43 5 -116 -35 -178 -66 -282 -137 -43 -30 -82 -54 -86
-54 -5 0 -20 18 -35 40 -76 115 -296 344 -452 472 -167 136 -490 325 -671 392
l-43 16 -15 -36 c-10 -25 -12 -41 -5 -54 35 -66 -48 -205 -157 -260 -41 -21
-62 -25 -143 -25 -85 0 -100 3 -144 27 l-48 28 -30 -25 -30 -25 -327 0 c-362
0 -359 0 -387 66 -28 66 -7 154 40 176 26 11 26 12 26 135 0 142 10 132 -113
108z m41 -581 c45 -18 85 -55 120 -109 22 -34 27 -51 27 -111 0 -61 -4 -77
-30 -120 -61 -99 -169 -142 -272 -110 -127 40 -197 168 -162 293 16 58 99 147
150 161 52 15 126 14 167 -4z m680 -130 c32 -22 30 -76 -4 -103 -15 -12 -34
-21 -44 -21 -26 0 -70 46 -70 73 0 55 69 85 118 51z m-202 -329 c59 -45 78
-117 48 -182 -66 -137 -284 -91 -284 60 0 124 139 196 236 122z m859 -31 c14
-15 25 -35 25 -46 0 -29 -41 -64 -72 -63 -65 3 -91 76 -42 114 36 28 60 26 89
-5z m-2762 -106 c-97 -147 -263 -487 -263 -538 0 -4 51 -8 113 -8 61 0 126 -5
143 -10 31 -10 32 -9 60 51 43 92 114 195 178 262 l57 60 -39 -55 c-51 -72
-114 -181 -147 -255 -59 -130 -57 -127 -79 -122 -151 36 -176 39 -276 34 -72
-4 -123 -12 -160 -26 -29 -11 -56 -19 -58 -17 -3 4 102 46 116 46 4 0 26 46
49 103 46 111 130 263 203 369 45 65 167 218 174 218 2 0 -30 -51 -71 -112z
m2407 40 c27 -29 25 -54 -5 -83 -32 -33 -68 -32 -94 1 -26 33 -27 58 -1 84 27
27 74 26 100 -2z m-1415 -43 c50 -49 20 -125 -49 -125 -57 0 -96 68 -63 111
33 43 78 49 112 14z m2341 -241 l34 -35 0 -186 0 -185 23 7 c40 15 95 10 116
-10 12 -10 21 -21 21 -25 0 -9 -76 -60 -90 -60 -5 0 -10 11 -10 24 0 14 -10
30 -25 40 -24 16 -28 16 -60 0 -26 -12 -42 -31 -65 -78 l-29 -61 -1 260 c0
286 -4 306 -55 316 l-30 6 25 11 c14 6 45 11 69 11 38 1 48 -4 77 -35z m-1977
-8 c93 -49 128 -178 76 -282 -59 -118 -225 -146 -329 -55 -60 52 -79 180 -39
257 52 98 186 135 292 80z m1499 -6 c63 -39 82 -137 36 -197 -61 -80 -153 -84
-223 -9 -34 36 -41 114 -14 156 44 69 133 91 201 50z m-580 -19 c21 -13 44
-63 34 -73 -6 -6 -12 3 -15 21 -4 19 -13 31 -22 31 -12 0 -13 -3 -3 -19 13
-22 -3 -51 -29 -51 -8 0 -12 -4 -8 -9 3 -6 18 -6 38 -1 29 9 30 8 13 -5 -11
-8 -26 -15 -34 -15 -17 0 -55 20 -64 34 -33 49 39 120 90 87z m930 -503 c3
-266 8 -493 13 -505 26 -68 89 32 194 307 19 51 35 94 35 96 0 2 -10 -2 -22
-10 -42 -26 -76 -28 -98 -6 -40 40 -22 152 30 180 21 11 24 8 21 -22 -3 -23
17 -58 32 -58 16 0 100 45 155 82 24 17 45 28 47 26 2 -2 -7 -73 -19 -158 -30
-195 -40 -302 -31 -329 4 -15 15 -21 35 -21 34 0 69 45 115 150 66 150 75 181
81 289 4 58 11 112 17 120 11 13 27 21 76 36 l23 7 -7 -230 c-7 -233 -3 -272
29 -272 55 0 153 202 201 415 34 148 32 145 81 167 25 11 48 18 50 15 2 -2 0
-60 -4 -128 -5 -68 -9 -198 -10 -289 -2 -162 -2 -165 16 -141 34 42 125 223
182 360 31 74 62 137 68 139 19 6 14 -51 -9 -115 -34 -93 -163 -352 -213 -427
-37 -55 -46 -78 -46 -112 0 -79 -28 -193 -66 -264 -33 -64 -110 -150 -134
-150 -13 0 -36 56 -44 110 -11 79 33 204 111 313 l34 48 -2 155 c-1 85 -5 154
-8 154 -4 0 -13 -17 -20 -37 -44 -125 -125 -249 -181 -278 -16 -8 -44 -15 -62
-15 -60 1 -88 39 -88 122 l-1 53 -48 -100 c-55 -116 -105 -169 -169 -180 -96
-16 -142 61 -122 202 5 37 8 68 7 70 -2 1 -27 -55 -55 -125 -65 -157 -104
-214 -166 -237 -82 -31 -116 -5 -126 95 l-5 55 -28 -71 c-35 -90 -84 -148
-134 -161 -70 -18 -118 9 -158 86 l-22 45 -34 -67 c-49 -99 -104 -157 -155
-164 -33 -4 -46 -1 -68 18 -40 35 -46 82 -39 287 4 121 3 182 -4 182 -44 0
-104 -101 -172 -290 -31 -87 -71 -243 -71 -277 0 -2 -18 -12 -41 -23 -65 -34
-69 -28 -69 107 l0 118 -59 -120 c-67 -134 -108 -183 -165 -192 -82 -13 -110
32 -109 179 1 55 -2 96 -6 92 -5 -5 -18 -36 -31 -69 -54 -138 -126 -257 -174
-286 -40 -25 -91 -24 -115 0 -21 21 -29 54 -33 130 l-3 44 -34 -80 c-47 -113
-89 -167 -146 -188 -37 -14 -51 -16 -71 -6 -32 14 -54 66 -54 128 l-1 48 -23
-55 c-62 -150 -108 -200 -181 -200 -74 0 -121 52 -146 163 -16 76 -2 154 49
256 74 149 193 230 339 231 74 0 75 -2 69 -250 -4 -176 -3 -221 8 -236 14 -18
15 -18 41 6 32 30 95 151 134 259 21 55 30 103 34 174 3 53 9 102 12 107 11
18 85 51 97 44 7 -5 9 -38 4 -108 -4 -56 -9 -167 -13 -247 -5 -128 -4 -147 10
-152 27 -10 72 37 109 115 49 100 105 254 123 335 9 38 18 78 20 90 5 23 45
56 84 68 l24 7 -8 -213 c-4 -118 -9 -218 -12 -222 -9 -15 7 -75 22 -80 33 -13
97 87 156 246 49 131 59 169 59 228 0 41 5 63 20 81 21 28 76 55 88 44 3 -4 5
-78 4 -164 l-3 -157 39 95 c108 263 181 342 271 295 18 -9 36 -28 42 -43 12
-30 13 -167 3 -319 -6 -91 -5 -103 10 -109 27 -10 63 32 112 131 28 57 48 114
54 155 20 126 122 289 210 335 17 9 54 17 81 17 l51 1 -3 251 -4 251 45 22
c29 15 47 20 54 13 6 -6 12 -192 14 -492z m-2778 302 c75 -38 150 -151 185
-277 22 -80 31 -290 16 -392 -21 -141 -90 -338 -149 -424 -16 -23 -42 -64 -58
-92 -15 -27 -62 -84 -103 -125 -68 -67 -78 -82 -94 -139 -10 -35 -16 -66 -13
-68 9 -9 171 -4 206 7 42 12 43 12 36 1 -10 -15 -123 -42 -193 -45 -67 -3
-178 5 -187 15 -3 3 6 40 19 82 14 43 25 87 25 97 0 11 14 32 32 47 139 121
225 250 302 454 145 389 37 849 -198 849 -55 0 -53 12 4 28 49 13 125 5 170
-18z m1517 10 c26 0 83 -62 93 -101 9 -33 8 -47 -9 -84 -27 -61 -71 -87 -136
-82 -43 4 -54 10 -87 47 -31 35 -38 50 -38 84 0 23 9 55 20 74 23 37 93 75
125 67 11 -3 25 -5 32 -5z m-1644 -74 c65 -27 119 -110 153 -236 27 -101 25
-299 -5 -415 -60 -234 -156 -404 -301 -538 -63 -58 -69 -66 -80 -122 -7 -33
-23 -89 -37 -123 -14 -35 -21 -68 -17 -72 15 -14 124 -30 208 -30 148 0 262
40 345 119 87 82 93 176 12 192 -46 10 -81 48 -88 95 -4 34 -1 44 25 72 40 42
74 42 113 0 39 -44 52 -96 47 -193 -3 -66 -10 -93 -40 -155 -52 -108 -121
-171 -219 -201 -68 -21 -81 -21 -159 -11 -47 6 -127 25 -179 43 l-95 32 -24
-29 c-126 -152 -253 -232 -403 -255 -78 -12 -148 2 -210 43 -41 28 -79 99 -79
149 0 83 92 183 197 214 71 21 167 19 286 -6 56 -12 109 -22 117 -23 9 -1 18
16 26 52 6 28 9 52 5 52 -3 0 -28 -7 -56 -16 -77 -24 -216 -23 -300 4 -128 39
-244 128 -325 249 -64 96 -100 208 -107 330 -7 123 8 198 65 313 38 79 60 109
131 180 191 191 445 253 690 170 50 -17 57 -17 65 -3 21 38 84 98 121 114 48
22 75 23 118 5z m2134 -16 c105 -47 111 -189 11 -250 -86 -52 -196 6 -206 108
-5 57 13 100 55 130 50 35 83 38 140 12z m-812 -225 c14 -13 25 -33 25 -45 0
-11 -11 -32 -25 -45 -13 -14 -33 -25 -45 -25 -11 0 -32 11 -45 25 -14 13 -25
34 -25 45 0 12 11 32 25 45 31 32 59 32 90 0z m1430 15 c-3 -5 -16 -10 -28
-10 -18 0 -19 2 -7 10 20 13 43 13 35 0z m211 -99 c-11 -17 39 -76 72 -86 38
-11 38 -7 -21 -145 -50 -117 -57 -126 -58 -70 -1 25 -3 99 -5 165 -4 115 -2
145 11 145 4 0 4 -4 1 -9z m-646 -41 c40 -11 103 -71 119 -111 7 -19 4 -44
-10 -95 -10 -38 -19 -78 -19 -89 0 -22 -65 -165 -75 -165 -3 0 -3 62 1 138 9
175 4 202 -47 253 -34 34 -45 39 -86 39 -52 0 -52 6 4 25 46 17 67 18 113 5z
m-268 -88 c7 -7 -2 -30 -28 -73 l-39 -63 -6 48 c-5 49 -26 76 -58 76 -11 1 -7
6 9 16 27 16 104 14 122 -4z m-346 -88 c72 -34 82 -114 33 -258 -35 -101 -94
-236 -104 -236 -4 0 -4 44 -1 98 19 324 19 332 1 352 -10 11 -24 20 -32 20
-24 0 -13 20 15 26 15 3 32 7 37 9 6 2 12 4 13 4 2 1 19 -6 38 -15z m-361 -98
c105 -44 94 -176 -35 -448 -12 -27 -26 -48 -32 -48 -8 0 -6 78 7 210 2 25 5
87 6 138 1 97 -7 122 -42 122 -30 0 -22 16 14 28 44 14 43 14 82 -2z m-325
-121 c47 -24 63 -65 58 -154 -4 -62 -12 -94 -48 -176 -72 -166 -70 -168 -70
66 0 205 0 206 -24 228 -20 18 -36 23 -83 24 -32 0 -76 -3 -98 -7 -59 -11 -39
0 40 23 80 24 175 22 225 -4z m-602 -205 c23 -10 45 -25 47 -32 3 -8 -5 -40
-18 -72 l-24 -58 -22 46 c-30 61 -73 96 -117 96 -42 0 -37 16 9 29 49 14 78
12 125 -9z m-200 -280 c9 -5 29 -14 45 -20 20 -7 27 -16 27 -35 l0 -26 -31 18
c-17 10 -40 30 -51 46 -21 29 -18 33 10 17z m3042 -546 l28 -68 -59 -72 c-127
-153 -324 -327 -510 -450 -102 -67 -356 -200 -365 -192 -2 3 27 24 65 47 97
57 248 171 361 273 140 125 337 359 417 495 14 24 27 42 30 40 2 -3 17 -35 33
-73z"/>
<path d="M3598 5723 c6 -80 -11 -126 -63 -179 -57 -56 -129 -75 -202 -51 l-48
16 40 -35 c106 -91 253 -57 319 73 30 59 19 153 -23 204 l-28 32 5 -60z"/>
<path d="M4198 5698 c13 -13 16 -58 4 -58 -5 0 -17 -7 -28 -15 -18 -13 -18
-14 -1 -15 10 0 29 11 42 25 22 21 24 27 13 50 -6 14 -18 25 -27 25 -12 0 -12
-3 -3 -12z"/>
<path d="M4014 5348 c32 -46 15 -117 -36 -149 -26 -16 -44 -19 -80 -15 -27 3
-48 3 -48 1 0 -10 75 -35 104 -35 83 1 138 126 85 194 -25 32 -47 35 -25 4z"/>
<path d="M4868 5323 c-2 -20 -13 -33 -38 -45 l-35 -18 36 0 c42 0 59 15 59 51
0 37 -18 46 -22 12z"/>
<path d="M4507 5260 c-5 -21 -14 -31 -32 -36 -30 -7 -33 -24 -4 -24 37 0 59
19 59 50 0 39 -16 47 -23 10z"/>
<path d="M3111 5209 c-1 -22 -31 -46 -61 -52 -19 -3 -16 -5 11 -6 42 -1 63 17
56 51 -2 13 -5 16 -6 7z"/>
<path d="M3460 4983 c0 -6 6 -16 14 -22 24 -20 37 -101 24 -150 -26 -104 -169
-167 -249 -110 -16 11 -29 15 -29 9 0 -16 86 -67 125 -74 133 -25 255 124 201
247 -15 35 -86 117 -86 100z"/>
<path d="M4976 4923 c4 -23 4 -53 0 -67 -8 -34 -64 -66 -115 -66 -49 0 -54
-16 -8 -28 53 -15 102 -3 135 31 17 18 31 39 32 47 6 41 -2 71 -25 97 l-25 28
6 -42z"/>
<path d="M5610 4390 c0 -11 2 -20 4 -20 2 0 6 9 9 20 3 11 1 20 -4 20 -5 0 -9
-9 -9 -20z"/>
<path d="M5153 4370 c-94 -38 -189 -367 -136 -470 37 -71 103 -40 143 66 26
70 60 261 60 335 0 47 -4 60 -19 69 -22 11 -19 11 -48 0z m22 -97 c-28 -236
-79 -392 -117 -355 -19 18 -15 146 7 212 37 114 83 200 107 200 6 0 7 -24 3
-57z"/>
<path d="M6250 3978 c-28 -39 -60 -122 -60 -157 0 -33 22 -91 34 -91 7 0 23
21 36 47 18 36 24 69 28 145 3 54 2 98 -2 98 -3 0 -19 -19 -36 -42z"/>
<path d="M3154 3820 c-93 -37 -192 -378 -139 -479 18 -35 35 -43 66 -27 58 28
128 237 154 459 l7 57 -33 -1 c-19 0 -44 -4 -55 -9z m31 -87 c-12 -83 -64
-281 -87 -328 -64 -131 -74 53 -13 229 28 80 69 146 91 146 12 0 14 -8 9 -47z"/>
<path d="M4093 4713 c19 -39 6 -91 -32 -125 -17 -16 -38 -28 -46 -28 -8 0 -15
-4 -15 -10 0 -24 83 -4 115 28 32 32 35 97 4 136 -27 34 -43 33 -26 -1z"/>
<path d="M2334 4670 c-24 -9 -62 -57 -88 -108 -17 -33 -17 -33 11 -55 56 -43
133 -120 133 -133 0 -32 -26 -20 -90 42 -46 44 -74 64 -80 58 -18 -18 -28
-232 -24 -474 4 -254 13 -472 20 -479 2 -3 20 11 40 30 163 156 267 422 273
692 2 92 -8 160 -39 276 -32 118 -93 177 -156 151z m68 -57 c37 -44 78 -206
78 -312 l0 -63 -42 4 c-24 3 -52 8 -62 13 -18 8 -19 1 -14 -234 6 -271 7 -266
-71 -361 l-36 -45 -5 90 c-8 135 -6 672 2 681 4 4 28 -12 53 -35 51 -47 81
-52 114 -17 34 36 23 61 -59 140 -76 74 -79 83 -35 130 28 30 56 33 77 9z"/>
<path d="M1750 4565 c-143 -43 -244 -119 -332 -248 -84 -123 -119 -235 -119
-382 1 -179 56 -321 167 -425 109 -102 274 -162 397 -144 94 13 157 36 162 58
7 38 15 188 20 426 9 379 18 458 70 595 14 37 25 73 25 80 0 26 -109 57 -210
61 -80 4 -108 0 -180 -21z m272 -34 c32 -7 59 -15 62 -19 2 -4 -2 -23 -10 -42
-7 -19 -13 -28 -13 -18 -2 27 -101 29 -194 3 -42 -12 -79 -24 -82 -26 -2 -2
-11 -56 -20 -119 -22 -159 -30 -392 -16 -535 13 -147 40 -307 52 -320 6 -5 48
-10 94 -10 93 0 98 -7 17 -24 -265 -55 -503 117 -561 407 -51 250 95 549 321
659 116 57 223 70 350 44z m-15 -408 c-4 -43 -7 -166 -8 -273 -1 -160 -3 -185
-11 -140 -15 84 1 490 20 490 2 0 2 -35 -1 -77z"/>
<path d="M1621 4311 c-106 -126 -154 -247 -155 -386 -1 -100 15 -174 52 -252
34 -73 165 -202 148 -146 -17 55 -30 230 -29 388 1 161 12 278 39 413 9 45 -7
41 -55 -17z"/>
<path d="M1658 3259 c-72 -10 -115 -29 -160 -68 -68 -59 -85 -141 -42 -206 39
-60 184 -85 285 -50 98 34 191 126 235 231 19 46 20 45 -104 72 -132 28 -149
30 -214 21z m207 -64 c32 -9 61 -17 63 -19 10 -11 -91 -146 -109 -146 -4 0
-17 25 -29 55 -12 31 -26 57 -30 60 -16 10 -104 -25 -131 -51 -58 -56 -24 -98
76 -96 36 0 65 -1 65 -3 0 -8 -110 -35 -142 -35 -117 0 -178 73 -133 160 18
35 56 62 115 84 54 20 163 16 255 -9z"/>
<path d="M4578 4615 c2 -19 1 -46 -2 -59 -8 -34 -62 -69 -116 -77 l-45 -5 28
-12 c16 -7 48 -12 72 -12 37 0 47 5 74 35 35 41 40 79 15 131 -21 44 -31 43
-26 -1z"/>
<path d="M3718 4458 c17 -17 15 -38 -5 -60 -20 -22 -1 -24 21 -2 26 25 14 74
-18 74 -6 0 -5 -5 2 -12z"/>
<path d="M1850 2784 c-36 -13 -80 -23 -97 -24 -18 0 -33 -5 -33 -10 0 -55 267
-437 382 -548 33 -31 37 -32 79 -23 66 16 135 13 224 -8 44 -11 81 -18 83 -17
1 2 -28 28 -65 59 -163 132 -383 387 -466 538 -17 32 -34 58 -37 57 -3 0 -34
-11 -70 -24z"/>
<path d="M1393 2643 c-13 -2 -23 -7 -23 -9 0 -26 154 -277 250 -407 112 -152
144 -191 219 -270 75 -79 75 -79 84 -52 8 22 4 32 -22 63 -189 221 -304 389
-410 600 -43 83 -46 85 -98 75z"/>
<path d="M2192 2145 c-75 -21 -105 -39 -144 -85 -41 -47 -58 -98 -58 -171 0
-66 35 -146 76 -177 l29 -21 -45 -1 c-25 0 -55 -7 -67 -15 -21 -15 -22 -20
-16 -158 3 -89 10 -147 17 -155 20 -21 145 -60 234 -72 176 -26 333 46 389
179 23 53 21 165 -4 221 -21 47 -76 110 -96 110 -7 0 1 11 17 24 l30 23 1 122
c0 73 -4 126 -10 131 -15 12 -182 50 -245 55 -32 3 -77 -1 -108 -10z m229 -57
l85 -22 0 -95 c-1 -103 -7 -121 -36 -121 -13 0 -23 14 -34 46 -32 95 -92 143
-160 130 -50 -10 -79 -50 -73 -99 7 -55 37 -81 120 -106 131 -40 162 -54 199
-90 67 -68 78 -201 22 -282 -60 -87 -160 -126 -298 -116 -73 5 -201 38 -217
55 -4 4 -9 62 -13 129 -6 117 -6 122 14 128 11 4 33 4 49 0 24 -5 30 -13 36
-43 25 -132 138 -222 223 -178 81 42 81 164 1 214 -19 11 -74 35 -122 52 -93
34 -139 65 -162 109 -40 79 -25 181 36 242 70 70 181 86 330 47z m-69 -137
c28 -33 54 -89 45 -98 -10 -9 -95 18 -122 39 -14 11 -25 29 -25 42 0 53 63 64
102 17z m-67 -336 c40 -16 65 -47 65 -83 0 -76 -72 -98 -127 -39 -37 39 -52
67 -68 129 l-13 47 62 -23 c33 -13 70 -27 81 -31z"/>
<path d="M2207 2076 c-55 -15 -91 -39 -121 -80 -17 -22 -21 -42 -21 -101 0
-71 2 -75 34 -109 24 -25 63 -47 125 -71 161 -62 196 -97 196 -193 0 -45 -4
-57 -32 -88 -58 -62 -158 -66 -235 -8 -38 29 -77 92 -93 152 -6 23 -14 42 -18
42 -8 0 -5 -183 3 -207 2 -7 37 -22 77 -35 208 -64 378 16 378 178 0 95 -54
151 -189 195 -132 43 -174 77 -186 148 -13 77 39 141 126 156 85 15 157 -33
203 -135 20 -44 25 -50 25 -29 2 61 -47 147 -98 173 -42 22 -120 27 -174 12z"/>
<path d="M4153 2070 c-68 -41 -82 -134 -29 -189 14 -15 26 -30 26 -33 0 -12
-102 -20 -113 -9 -6 6 -35 11 -64 11 -52 0 -53 0 -53 30 0 55 -67 91 -140 77
-42 -9 -190 -160 -190 -195 0 -48 12 -72 36 -78 23 -6 24 -9 24 -113 0 -125
17 -195 57 -233 71 -68 185 -64 280 8 l32 25 7 -26 c3 -14 14 -30 24 -35 10
-6 93 -10 184 -10 191 0 196 2 196 80 0 43 -4 52 -27 67 -16 10 -31 22 -35 28
-4 5 -8 85 -8 176 0 151 -2 167 -19 183 -19 17 -19 18 5 53 28 41 32 99 9 142
-28 56 -141 79 -202 41z m148 -49 c26 -21 32 -79 10 -105 -18 -21 -77 -39
-107 -32 -62 16 -85 88 -42 133 28 30 104 32 139 4z m-433 -168 l3 -52 72 -3
72 -3 0 -30 0 -30 -72 -3 -73 -3 0 -125 c0 -162 14 -190 73 -144 27 21 52 18
62 -7 7 -19 -45 -77 -89 -100 -35 -18 -104 -20 -145 -4 -57 24 -65 50 -71 221
l-5 155 -25 4 c-14 1 -28 8 -31 13 -11 17 2 45 26 56 12 6 42 33 66 62 42 48
46 50 89 48 l45 -3 3 -52z m417 -37 l35 -15 0 -186 0 -186 35 -15 c27 -11 35
-20 35 -39 l0 -25 -160 0 -160 0 0 28 c0 25 5 30 38 38 l37 9 3 142 3 143 -41
6 c-36 6 -40 9 -40 36 0 16 6 30 13 32 6 2 44 13 82 24 89 25 80 24 120 8z
m-175 -252 c0 -99 -1 -103 -22 -106 -16 -2 -34 8 -55 31 -29 30 -37 33 -73 28
l-40 -5 0 83 0 84 58 3 c31 2 74 -1 95 -7 l37 -9 0 -102z"/>
<path d="M4177 2002 c-21 -23 -22 -56 -1 -76 21 -21 47 -20 67 2 21 23 21 41
1 70 -18 27 -45 28 -67 4z"/>
<path d="M3757 1851 c-14 -21 -42 -48 -61 -61 -44 -27 -46 -40 -6 -40 l30 0 0
-137 c0 -156 10 -203 47 -233 48 -37 142 -21 192 34 32 34 23 40 -25 16 -46
-24 -90 -19 -116 12 -15 17 -18 41 -18 164 l0 144 95 0 c78 0 95 3 95 15 0 12
-17 15 -95 15 l-95 0 0 55 c0 30 -4 55 -9 55 -4 0 -20 -17 -34 -39z"/>
<path d="M4158 1777 c-70 -21 -88 -37 -42 -37 14 0 34 -5 45 -10 17 -10 19
-23 19 -155 0 -158 -4 -170 -61 -182 -66 -13 -20 -23 106 -23 133 0 176 12 91
24 -24 4 -49 13 -56 20 -6 9 -13 86 -17 200 -3 102 -9 185 -12 185 -3 -1 -36
-11 -73 -22z"/>
<path d="M3960 1587 c0 -19 9 -28 40 -40 l40 -15 0 39 c0 39 0 39 -40 39 -35
0 -40 -3 -40 -23z"/>
<path d="M2596 2010 c-3 -37 -3 -88 0 -114 l7 -45 28 19 c15 11 37 35 48 54
12 18 34 40 50 47 l28 14 -77 46 -77 46 -7 -67z"/>
<path d="M2781 1953 c-7 -3 -49 -41 -92 -84 -70 -69 -79 -82 -79 -114 0 -46
15 -75 40 -75 19 0 20 -7 20 -112 0 -132 10 -176 51 -223 38 -42 87 -59 154
-52 65 7 101 24 151 75 l39 40 20 -36 c35 -61 66 -77 148 -76 243 4 281 8 315
33 47 33 92 98 92 133 0 31 -39 78 -65 78 -12 0 -15 15 -15 88 -1 91 -15 149
-47 184 -71 81 -279 76 -373 -8 -63 -57 -74 -150 -24 -205 12 -14 12 -18 -6
-34 -10 -9 -24 -33 -30 -51 l-11 -34 -28 21 c-29 21 -56 26 -83 14 -16 -6 -18
1 -18 79 l0 86 54 0 c67 0 81 15 81 85 0 70 -14 85 -80 85 l-52 0 -7 41 c-5
34 -12 42 -41 55 -34 14 -88 17 -114 7z m107 -100 l3 -53 68 0 c73 0 88 -11
76 -51 -5 -16 -17 -19 -76 -19 l-70 0 3 -136 c3 -159 11 -174 68 -134 32 23
32 23 52 3 20 -20 20 -20 -11 -56 -17 -19 -47 -43 -68 -52 -46 -22 -125 -22
-158 -1 -47 31 -58 69 -63 229 l-5 147 -28 0 c-21 0 -29 5 -29 18 0 23 8 32
53 65 21 16 48 44 60 63 21 33 25 34 72 32 l50 -3 3 -52z m527 -34 c24 -6 53
-21 64 -33 25 -27 41 -109 41 -213 0 -70 1 -73 23 -73 13 0 32 -9 42 -20 17
-19 17 -21 -11 -61 -46 -67 -128 -95 -184 -65 -21 12 -29 12 -53 -1 -37 -19
-124 -21 -164 -4 -33 13 -63 62 -63 100 0 39 28 90 62 111 18 11 66 31 105 43
l73 22 0 41 c0 56 -18 78 -65 76 -51 -2 -66 -17 -37 -38 45 -31 15 -94 -44
-94 -63 0 -93 65 -59 130 35 68 164 106 270 79z"/>
<path d="M2775 1850 c-15 -22 -43 -49 -61 -61 -42 -25 -43 -39 -5 -39 l30 0 3
-166 3 -166 33 -29 c53 -47 144 -35 202 27 29 30 20 41 -14 18 -35 -22 -101
-22 -126 1 -18 17 -20 31 -20 167 l0 148 95 0 c78 0 95 3 95 15 0 12 -17 15
-95 15 l-95 0 0 49 c0 28 -4 52 -9 55 -5 3 -21 -12 -36 -34z"/>
<path d="M3223 1780 c-54 -28 -80 -78 -61 -117 7 -15 22 -29 33 -32 19 -3 19
-3 3 16 -46 51 -2 114 86 121 49 4 56 2 70 -21 10 -14 18 -49 19 -82 l2 -56
-70 -23 c-131 -42 -165 -71 -165 -139 0 -51 35 -87 85 -87 38 0 103 28 124 54
18 21 31 20 31 -2 0 -43 59 -57 101 -23 34 27 65 81 46 81 -8 0 -20 -7 -27
-15 -7 -9 -23 -15 -34 -13 -20 3 -21 10 -26 155 -5 141 -7 154 -27 175 -33 33
-133 37 -190 8z m155 -252 c3 -40 -1 -49 -28 -77 -41 -41 -101 -44 -126 -6
-18 28 -13 54 19 82 23 22 104 54 122 49 6 -1 11 -23 13 -48z"/>
<path d="M3318 1520 c-29 -23 -39 -70 -15 -70 23 0 49 37 45 65 l-3 27 -27
-22z"/>
<path d="M4586 1850 c-58 -23 -98 -59 -134 -119 -35 -59 -43 -183 -17 -262 25
-73 94 -142 166 -163 211 -63 391 60 393 269 1 121 -52 217 -149 268 -58 30
-192 34 -259 7z m241 -50 c48 -21 98 -83 114 -144 28 -104 -13 -232 -90 -281
-94 -59 -242 -48 -318 25 -84 78 -92 257 -16 346 68 80 198 102 310 54z"/>
<path d="M4605 1786 c-72 -32 -115 -111 -115 -208 0 -70 23 -129 61 -165 52
-48 143 -66 206 -42 160 60 160 358 0 418 -39 15 -116 13 -152 -3z m114 -17
c50 -18 75 -75 75 -179 1 -101 -5 -128 -40 -169 -53 -63 -148 -30 -174 60 -6
18 -10 67 -10 108 0 109 28 161 100 184 8 3 15 6 16 6 1 1 15 -4 33 -10z"/>
<path d="M4678 1733 c-57 -66 -48 -281 13 -314 15 -8 24 -5 43 14 31 31 39 74
35 176 -3 61 -9 86 -25 108 -26 34 -45 39 -66 16z m47 -146 c0 -91 -10 -132
-25 -107 -11 17 -13 169 -4 195 14 36 29 -8 29 -88z"/>
<path d="M5128 1855 c-20 -8 -57 -17 -82 -20 -57 -9 -69 -24 -69 -82 0 -50 26
-83 64 -83 17 0 19 -9 19 -105 0 -94 -2 -105 -18 -105 -67 0 -95 -114 -38
-152 6 -4 149 -8 318 -8 265 0 309 2 322 16 40 39 26 122 -23 141 l-29 11 -4
148 c-3 137 -5 152 -27 188 -14 21 -39 44 -57 52 -41 17 -137 17 -184 1 -28
-10 -40 -10 -60 0 -32 16 -85 15 -132 -2z m116 -45 c35 -17 41 -18 66 -5 48
25 130 29 170 8 53 -28 62 -57 69 -233 l6 -155 33 -10 c26 -7 32 -14 32 -37
l0 -28 -145 0 -145 0 0 28 c0 19 7 30 23 37 21 10 22 16 25 145 1 74 -2 142
-7 150 -9 12 -16 11 -55 -8 l-46 -22 0 -123 c0 -120 1 -124 26 -146 14 -12 24
-30 22 -39 -3 -15 -21 -17 -151 -20 l-147 -3 0 29 c0 25 5 30 38 38 l37 9 6
65 c3 36 4 100 1 143 l-5 77 -39 6 c-37 6 -39 9 -36 38 3 27 7 31 43 38 22 4
58 13 80 22 53 19 54 19 99 -4z m83 -307 c-2 -32 -3 -8 -3 52 0 61 1 87 3 58
2 -29 2 -78 0 -110z"/>
<path d="M5140 1785 c-19 -7 -47 -16 -62 -19 -33 -7 -38 -26 -7 -26 11 0 29
-5 40 -10 17 -10 19 -23 19 -159 0 -162 -1 -166 -58 -177 -68 -14 -27 -24 93
-24 121 0 162 11 91 24 -53 10 -57 21 -54 157 l3 123 47 33 c57 42 107 52 132
28 14 -15 16 -37 14 -173 -3 -152 -4 -157 -25 -167 -45 -19 -21 -25 102 -25
127 0 165 12 76 24 -27 3 -53 12 -59 19 -5 6 -14 87 -19 179 -10 192 -17 208
-85 208 -45 0 -86 -19 -145 -66 l-42 -34 -3 47 c-2 25 -7 48 -13 49 -5 2 -26
-3 -45 -11z"/>
<path d="M2980 1595 c0 -9 12 -20 26 -25 39 -15 45 -12 32 15 -13 28 -58 36
-58 10z"/>
</g>
</svg>
